<?xml version="1.0" encoding="UTF-8"?>
<!DOCTYPE svg PUBLIC "-//W3C//DTD SVG 1.1//EN" "http://www.w3.org/Graphics/SVG/1.1/DTD/svg11.dtd">
<svg xmlns="http://www.w3.org/2000/svg" version="1.1" width="141px" height="62px" style="shape-rendering:geometricPrecision; text-rendering:geometricPrecision; image-rendering:optimizeQuality; fill-rule:evenodd; clip-rule:evenodd" xmlns:xlink="http://www.w3.org/1999/xlink">
<g><path style="opacity:1" fill="#03070b" d="M -0.5,-0.5 C 1.5,-0.5 3.5,-0.5 5.5,-0.5C 3.47073,1.85847 1.47073,4.1918 -0.5,6.5C -0.5,4.16667 -0.5,1.83333 -0.5,-0.5 Z"/></g>
<g><path style="opacity:1" fill="#36b0f6" d="M 5.5,-0.5 C 48.1667,-0.5 90.8333,-0.5 133.5,-0.5C 136.167,1.5 138.5,3.83333 140.5,6.5C 140.5,21.8333 140.5,37.1667 140.5,52.5C 138.5,56.5 135.5,59.5 131.5,61.5C 90.5,61.5 49.5,61.5 8.5,61.5C 4.5,59.5 1.5,56.5 -0.5,52.5C -0.5,37.1667 -0.5,21.8333 -0.5,6.5C 1.47073,4.1918 3.47073,1.85847 5.5,-0.5 Z"/></g>
<g><path style="opacity:1" fill="#040a0e" d="M 133.5,-0.5 C 135.833,-0.5 138.167,-0.5 140.5,-0.5C 140.5,1.83333 140.5,4.16667 140.5,6.5C 138.5,3.83333 136.167,1.5 133.5,-0.5 Z"/></g>
<g><path style="opacity:1" fill="#010305" d="M 9.5,4.5 C 49.8347,4.33334 90.168,4.50001 130.5,5C 132,5.83333 133.167,7 134,8.5C 134.667,22.8333 134.667,37.1667 134,51.5C 133.167,53 132,54.1667 130.5,55C 90.1667,55.6667 49.8333,55.6667 9.5,55C 8,54.1667 6.83333,53 6,51.5C 5.33333,37.1667 5.33333,22.8333 6,8.5C 6.68972,6.64977 7.85639,5.31643 9.5,4.5 Z"/></g>
<g><path style="opacity:1" fill="#35adf3" d="M 41.5,15.5 C 45.8461,15.3343 50.1794,15.501 54.5,16C 57.1667,19.3333 57.1667,22.6667 54.5,26C 55.3333,26.8333 56.1667,27.6667 57,28.5C 58.2393,24.2598 59.0727,19.9265 59.5,15.5C 64.1667,15.5 68.8333,15.5 73.5,15.5C 73.5,17.1667 73.5,18.8333 73.5,20.5C 70.7531,20.1866 68.0865,20.52 65.5,21.5C 65.1667,22.1667 64.8333,22.8333 64.5,23.5C 66.7427,24.4742 69.076,24.8076 71.5,24.5C 71.7394,26.4672 71.4061,28.3005 70.5,30C 68.1902,30.4966 65.8568,30.6633 63.5,30.5C 63.5,31.8333 63.5,33.1667 63.5,34.5C 65.8333,34.5 68.1667,34.5 70.5,34.5C 70.5,36.1667 70.5,37.8333 70.5,39.5C 65.8333,39.5 61.1667,39.5 56.5,39.5C 56.6495,38.448 56.4828,37.448 56,36.5C 54.3523,37.717 52.519,38.5503 50.5,39C 46.1794,39.499 41.8461,39.6657 37.5,39.5C 38.6183,31.4569 39.9516,23.4569 41.5,15.5 Z"/></g>
<g><path style="opacity:1" fill="#070d11" d="M 46.5,20.5 C 47.8333,20.5 49.1667,20.5 50.5,20.5C 50.8333,23.5 49.5,24.8333 46.5,24.5C 46.5,23.1667 46.5,21.8333 46.5,20.5 Z"/></g>
<g><path style="opacity:1" fill="#267bad" d="M 74.5,23.5 C 83.5,22.1667 92.5,22.1667 101.5,23.5C 97.4862,23.3345 93.4862,23.5012 89.5,24C 88.8906,25.9483 88.224,27.7816 87.5,29.5C 85.3926,28.5318 83.0593,28.1984 80.5,28.5C 82.6074,27.5318 84.9407,27.1984 87.5,27.5C 87.5,26.1667 87.5,24.8333 87.5,23.5C 83.1667,23.5 78.8333,23.5 74.5,23.5 Z"/></g>
<g><path style="opacity:1" fill="#36b1f8" d="M 74.5,23.5 C 78.8333,23.5 83.1667,23.5 87.5,23.5C 87.5,24.8333 87.5,26.1667 87.5,27.5C 84.9407,27.1984 82.6074,27.5318 80.5,28.5C 79.5655,29.5676 79.2322,30.901 79.5,32.5C 81.8333,32.5 84.1667,32.5 86.5,32.5C 85.6993,34.0418 85.366,35.7085 85.5,37.5C 83.1667,37.5 80.8333,37.5 78.5,37.5C 78.5,38.8333 78.5,40.1667 78.5,41.5C 80.8333,41.5 83.1667,41.5 85.5,41.5C 85.4326,40.0413 85.7659,38.7079 86.5,37.5C 87.3007,35.9582 87.634,34.2915 87.5,32.5C 87.5,31.5 87.5,30.5 87.5,29.5C 88.224,27.7816 88.8906,25.9483 89.5,24C 93.4862,23.5012 97.4862,23.3345 101.5,23.5C 106.714,25.6598 107.881,29.3264 105,34.5C 101.702,38.1646 97.5355,39.4979 92.5,38.5C 92.1667,41.1667 91.8333,43.8333 91.5,46.5C 89.5,46.5 87.5,46.5 85.5,46.5C 85.1667,42.5 84.8333,42.5 84.5,46.5C 80.1667,46.5 75.8333,46.5 71.5,46.5C 71.5,45.5 71.5,44.5 71.5,43.5C 72.25,36.7591 73.25,30.0924 74.5,23.5 Z"/></g>
<g><path style="opacity:1" fill="#0d141a" d="M 80.5,28.5 C 83.0593,28.1984 85.3926,28.5318 87.5,29.5C 87.5,30.5 87.5,31.5 87.5,32.5C 87.1667,32.5 86.8333,32.5 86.5,32.5C 84.1667,32.5 81.8333,32.5 79.5,32.5C 79.2322,30.901 79.5655,29.5676 80.5,28.5 Z"/></g>
<g><path style="opacity:1" fill="#0f1820" d="M 94.5,27.5 C 99.1585,27.0146 100.492,28.848 98.5,33C 96.8659,33.4935 95.1992,33.6602 93.5,33.5C 93.3253,31.3792 93.6586,29.3792 94.5,27.5 Z"/></g>
<g><path style="opacity:1" fill="#080f13" d="M 45.5,29.5 C 47.9775,29.0508 49.9775,29.7175 51.5,31.5C 50.2776,33.9783 48.2776,34.9783 45.5,34.5C 45.5,32.8333 45.5,31.1667 45.5,29.5 Z"/></g>
<g><path style="opacity:1" fill="#1d5f85" d="M 86.5,32.5 C 86.8333,32.5 87.1667,32.5 87.5,32.5C 87.634,34.2915 87.3007,35.9582 86.5,37.5C 86.1667,37.5 85.8333,37.5 85.5,37.5C 85.366,35.7085 85.6993,34.0418 86.5,32.5 Z"/></g>
<g><path style="opacity:1" fill="#000000" d="M 85.5,37.5 C 85.8333,37.5 86.1667,37.5 86.5,37.5C 85.7659,38.7079 85.4326,40.0413 85.5,41.5C 83.1667,41.5 80.8333,41.5 78.5,41.5C 78.5,40.1667 78.5,38.8333 78.5,37.5C 80.8333,37.5 83.1667,37.5 85.5,37.5 Z"/></g>
<g><path style="opacity:1" fill="#1a567a" d="M 71.5,43.5 C 71.5,44.5 71.5,45.5 71.5,46.5C 75.8333,46.5 80.1667,46.5 84.5,46.5C 84.8333,42.5 85.1667,42.5 85.5,46.5C 87.5,46.5 89.5,46.5 91.5,46.5C 84.6866,47.4912 77.6866,47.8245 70.5,47.5C 70.2322,45.901 70.5655,44.5676 71.5,43.5 Z"/></g>
<g><path style="opacity:1" fill="#050b10" d="M -0.5,52.5 C 1.5,56.5 4.5,59.5 8.5,61.5C 5.5,61.5 2.5,61.5 -0.5,61.5C -0.5,58.5 -0.5,55.5 -0.5,52.5 Z"/></g>
<g><path style="opacity:1" fill="#050b0f" d="M 140.5,52.5 C 140.5,55.5 140.5,58.5 140.5,61.5C 137.5,61.5 134.5,61.5 131.5,61.5C 135.5,59.5 138.5,56.5 140.5,52.5 Z"/></g>
</svg>
